<svg xmlns="http://www.w3.org/2000/svg" viewBox="0 0 64 64" role="img" aria-label="PitchRoom">
  <defs>
    <linearGradient id="pitchroomGradient" x1="10" x2="54" y1="12" y2="52" gradientUnits="userSpaceOnUse">
      <stop offset="0" stop-color="#ff7a18" />
      <stop offset="0.48" stop-color="#8b3dff" />
      <stop offset="1" stop-color="#2b6dff" />
    </linearGradient>
  </defs>
  <rect width="64" height="64" rx="16" fill="#11131d" />
  <path
    d="M17 18.5A6.5 6.5 0 0 1 23.5 12H31a11 11 0 0 1 0 22h-6v10.5a7.5 7.5 0 0 1-8 7.48V18.5Z"
    fill="url(#pitchroomGradient)"
  />
  <path
    d="M26 19h5a4 4 0 0 1 0 8h-5v-8Z"
    fill="#fff"
    fill-opacity=".92"
  />
  <path
    d="M37.5 20.5A8.5 8.5 0 0 1 46 29v5.5h-8.5A8.5 8.5 0 0 1 29 26v-5.5h8.5Z"
    fill="url(#pitchroomGradient)"
    opacity=".88"
  />
</svg>
